<svg width="32" height="32" viewBox="0 0 32 32" fill="none" xmlns="http://www.w3.org/2000/svg">
  <!-- Background circle -->
  <circle cx="16" cy="16" r="16" fill="#6b4a2f"/>
  <!-- Tooth shape - white for high contrast -->
  <path d="M16 7C13 7 11 9 11 11.5C11 13 11.5 14 12 15.5C12.3 16.5 12.5 17.5 12.5 18.5C12.5 20 13 21 13.8 21.8C14.2 22.2 14.6 22.6 15 23C15.4 23.4 15.7 23.5 16 23.5C16.3 23.5 16.6 23.4 17 23C17.4 22.6 17.8 22.2 18.2 21.8C19 21 19.5 20 19.5 18.5C19.5 17.5 19.7 16.5 20 15.5C20.5 14 21 13 21 11.5C21 9 19 7 16 7Z" fill="#FFFFFF"/>
  <!-- Tooth indent at top -->
  <path d="M16 7C16 8.2 15.6 9 15 9.5C15.3 9.7 15.6 9.8 16 9.8C16.4 9.8 16.7 9.7 17 9.5C16.4 9 16 8.2 16 7Z" fill="#E8E8E8"/>
  <!-- Smile curve below tooth -->
  <path d="M9 20C9 20 11 23 16 23C21 23 23 20 23 20" stroke="#FFFFFF" stroke-width="2.5" stroke-linecap="round"/>
</svg>
